<svg width="16" height="16" stroke="#FF3465" viewBox="0 0 26 27" fill="none" xmlns="http://www.w3.org/2000/svg"><path d="M7.66667 20.6676H18.3333M11.6903 1.68631L2.64719 8.71981C2.04269 9.18997 1.74045 9.42505 1.5227 9.71945C1.32982 9.98024 1.18614 10.274 1.0987 10.5864C1 10.939 1 11.3219 1 12.0877V21.7343C1 23.2278 1 23.9745 1.29065 24.5449C1.54631 25.0467 1.95426 25.4546 2.45603 25.7103C3.02646 26.001 3.77319 26.001 5.26667 26.001H20.7333C22.2268 26.001 22.9735 26.001 23.544 25.7103C24.0457 25.4546 24.4537 25.0467 24.7094 24.5449C25 23.9745 25 23.2278 25 21.7343V12.0877C25 11.3219 25 10.939 24.9013 10.5864C24.8139 10.274 24.6702 9.98024 24.4773 9.71945C24.2596 9.42505 23.9573 9.18997 23.3528 8.71981L14.3097 1.68631C13.8413 1.32197 13.6071 1.1398 13.3485 1.06978C13.1203 1.00799 12.8797 1.00799 12.6515 1.06978C12.3929 1.1398 12.1587 1.32197 11.6903 1.68631Z" stroke-width="2" stroke-linecap="round" stroke-linejoin="round"></path></svg>