<svg width="27864" height="6301" viewBox="0 0 27864 6301" fill="none" xmlns="http://www.w3.org/2000/svg">
<g clip-path="url(#clip0_3_205)">
<path d="M2162.72 3420.13H3922.21C3633.52 3822.76 3214.93 4112.7 2743.23 4244.91C2701.06 4256.62 2658.62 4267.29 2615.67 4276.14C2474.06 4306.85 2328.8 4323.25 2181.2 4324.55H2162.98C2007.05 4324.55 1854.76 4307.64 1707.94 4275.62C1663.43 4265.99 1619.17 4255.06 1575.7 4242.57C683.586 3987.77 17.4305 3169.24 0.249444 2201.58C-9.90299 1616.24 210.066 1064.22 620.068 647.017C1030.07 229.813 1577.78 0 2162.72 0C2178.86 0 2194.48 0.260264 2210.62 0.520529C2785.14 13.0132 3322.18 250.895 3723.33 670.181C4048.73 1010.35 4250.73 1434.84 4308.52 1889.78C4314.25 1934.54 4318.42 1979.83 4321.28 2025.38C4174.46 1993.36 4022.17 1976.45 3866.24 1976.45C3860.26 1976.45 3854.01 1976.71 3848.02 1976.71C3700.42 1978.01 3554.9 1994.41 3413.55 2024.86C3408.86 1980.87 3402.09 1937.67 3392.46 1895.51C3269.85 1329.69 2765.36 904.679 2162.72 904.419C2147.1 904.419 2130.7 904.939 2114.82 905.46C1461.94 929.664 930.629 1460.08 905.638 2112.83C892.362 2458.46 1016.79 2785.87 1256.03 3034.42C1420.29 3205.16 1623.6 3323.06 1846.69 3380.57C1948.21 3406.6 2054.42 3420.13 2162.72 3420.13Z" fill="#FF3465"/>
<path d="M6028.72 4099.68C6039.13 4685.02 5819.17 5237.04 5409.16 5654.24C4999.16 6071.45 4451.45 6301 3866.51 6301C3850.37 6301 3834.76 6301 3818.62 6300.48C3244.09 6288.25 2707.05 6050.37 2305.9 5631.08C1980.5 5290.65 1778.5 4866.16 1720.71 4411.22C1714.98 4366.45 1711.07 4321.17 1707.95 4275.62C1854.77 4307.64 2007.06 4324.55 2162.99 4324.55H2181.21C2328.81 4323.25 2474.07 4306.85 2615.68 4276.14C2620.37 4320.13 2627.66 4363.33 2636.77 4405.75C2759.38 4971.57 3264.14 5396.58 3866.51 5396.58C3882.39 5396.58 3898.53 5396.32 3914.41 5395.8C4567.29 5371.6 5098.34 4841.18 5123.59 4188.43C5136.87 3842.8 5012.44 3515.39 4773.2 3266.84C4608.94 3096.1 4405.63 2977.94 4183.06 2920.69C4160.41 2914.96 4137.77 2909.76 4115.12 2905.07C4106.53 2903.51 4097.94 2901.95 4089.09 2900.39C4078.93 2898.56 4068.26 2896.74 4057.85 2895.18C4037.02 2892.06 4015.94 2889.45 3994.85 2887.37C3989.38 2886.59 3983.92 2886.07 3978.19 2885.81C3968.3 2884.77 3958.41 2883.99 3948.78 2883.47H3945.91C3937.58 2882.69 3929.25 2882.43 3920.66 2882.17C3913.37 2881.65 3906.08 2881.39 3898.79 2881.39C3888.12 2881.13 3877.19 2880.87 3866.51 2880.87H2107.02C2395.71 2478.24 2814.57 2188.3 3286 2056.35C3328.18 2044.38 3370.61 2033.97 3413.56 2024.86C3554.91 1994.41 3700.43 1978.01 3848.03 1976.71C3854.02 1976.71 3860.27 1976.45 3866.25 1976.45C4022.19 1976.45 4174.47 1993.36 4321.29 2025.38C4332.75 2027.72 4343.42 2030.32 4354.61 2032.92C4368.93 2036.31 4383.25 2039.69 4397.82 2043.34C4416.31 2048.02 4434.79 2053.23 4453.27 2058.43C4806 2159.15 5123.33 2347.84 5379.23 2599C5771.01 2983.67 6018.57 3514.35 6028.72 4099.68Z" fill="#695CFF"/>
<path d="M18015.9 3810.79C18034.1 4841.44 17192.8 5679.75 16161.4 5657.63C15164.1 5636.02 14364.9 4799.54 14387 3802.46C14388.9 3720.74 14396.1 3640.58 14408.4 3561.72C14408.4 3561.2 14408.6 3560.68 14408.6 3560.16C14410.2 3550.79 14411.5 3541.42 14413.3 3532.05C14413.6 3531.79 14413.3 3531.79 14413.3 3531.79C14413.6 3530.49 14413.9 3529.18 14413.9 3528.14C14449.8 3321.23 14632.3 3171.84 14842.3 3171.84H15613.1C15426.2 3335.29 15308.3 3575.51 15308.3 3843.58C15308.3 4347.98 15726.6 4754.51 16235.6 4735.51C16698.4 4718.33 17075.6 4341.47 17093.6 3878.98C17113.1 3369.9 16706.2 2951.14 16201.5 2951.14H14621.1C14930.3 2404.84 15514.7 2035.01 16186.1 2029.28C17176.1 2020.95 17998.4 2820.75 18015.9 3810.79Z" fill="#2D2F34"/>
<path d="M22139.3 3810.79C22157.6 4841.44 21316.2 5679.75 20284.8 5657.63C19287.5 5636.02 18488.4 4799.54 18510.5 3802.46C18512.3 3720.74 18519.6 3640.58 18531.8 3561.72C18531.8 3561.2 18532.1 3560.68 18532.1 3560.16C18533.7 3550.79 18535 3541.42 18536.8 3532.05C18537 3531.79 18536.8 3531.79 18536.8 3531.79C18537 3530.49 18537.3 3529.18 18537.3 3528.14C18573.2 3321.23 18755.7 3171.84 18965.8 3171.84H19736.6C19549.7 3335.29 19431.8 3575.51 19431.8 3843.58C19431.8 4347.98 19850.1 4754.51 20359 4735.51C20821.9 4718.33 21199.1 4341.47 21217 3878.98C21236.5 3369.9 20829.7 2951.14 20324.9 2951.14H18744.5C19053.8 2404.84 19638.2 2035.01 20309.6 2029.28C21299.8 2020.95 22121.9 2820.75 22139.3 3810.79Z" fill="#2D2F34"/>
<path d="M27863.7 3810.79C27882 4841.44 27040.6 5679.75 26009.2 5657.63C25012 5636.02 24212.8 4799.54 24234.9 3802.46C24236.7 3720.74 24244 3640.58 24256.2 3561.72C24256.2 3561.2 24256.5 3560.68 24256.5 3560.16C24258.1 3550.79 24259.4 3541.42 24261.2 3532.05C24261.5 3531.79 24261.2 3531.79 24261.2 3531.79C24261.5 3530.49 24261.7 3529.18 24261.7 3528.14C24297.6 3321.23 24480.1 3171.84 24690.2 3171.84H25461C25274.1 3335.29 25156.2 3575.51 25156.2 3843.58C25156.2 4347.98 25574.5 4754.51 26083.4 4735.51C26546.3 4718.33 26923.5 4341.47 26941.4 3878.98C26961 3369.9 26554.1 2951.14 26049.3 2951.14H24468.9C24778.2 2404.84 25362.6 2035.01 26034 2029.28C27024 2020.95 27846.3 2820.75 27863.7 3810.79Z" fill="#2D2F34"/>
<path d="M23740.6 669.4V5221.94C23740.6 5462.69 23545.3 5657.89 23304.5 5657.89H22633.7V1105.34C22633.7 864.599 22828.9 669.4 23069.7 669.4H23740.6Z" fill="#2D2F34"/>
<path d="M8237.54 3123.95L7130.66 4186.87V643.113H7724.97C8007.94 643.113 8237.54 872.406 8237.54 1155.57V3123.95Z" fill="#2D2F34"/>
<path d="M13892.4 2029.02V2572.45C13892.4 2572.45 13815.9 2794.72 13492.8 3004.49C13492.8 3004.49 12912.3 3060.97 12750.4 3573.95V5221.94C12750.4 5462.69 12555.2 5657.89 12314.4 5657.89H11643.5V2464.96C11643.5 2224.22 11838.8 2029.02 12079.6 2029.02H12750.4V2369.97C12868.1 2253.11 13128.4 2029.02 13399.9 2029.02C13767.5 2029.02 13892.4 2029.02 13892.4 2029.02Z" fill="#2D2F34"/>
<path d="M11149.5 5657.89H10205C10044.7 5657.89 9893.15 5584.49 9793.71 5458.52L8807.89 4208.22L8237.27 4750.87V5145.43C8237.27 5428.59 8007.67 5657.89 7724.7 5657.89H7130.39V4516.89L8222.95 3465.94L8237.27 3452.15L8907.85 2814.76L9582.59 2173.21C9679.95 2080.55 9809.07 2029.02 9943.4 2029.02H11099.5L9492.78 3556.77L11149.5 5657.89Z" fill="#2D2F34"/>
</g>
<defs>
<clipPath id="clip0_3_205">
<rect width="27864" height="6301" fill="white"/>
</clipPath>
</defs>
</svg>
